<svg xmlns="http://www.w3.org/2000/svg" xmlns:xlink="http://www.w3.org/1999/xlink" width="89.501" height="458.674" viewBox="0 0 89.501 458.674">
  <defs>
    <style>
      .cls-1 {
        fill: url(#linear-gradient);
      }
    </style>
    <linearGradient id="linear-gradient" x1="0.302" y1="1.192" x2="0.5" gradientUnits="objectBoundingBox">
      <stop offset="0" stop-color="#5ab9ef"/>
      <stop offset="1" stop-color="#67e5ff"/>
    </linearGradient>
  </defs>
  <path id="Subtraction_6" data-name="Subtraction 6" class="cls-1" d="M.589,458.674c-.289,0-.48,0-.552-.006H0V0A.085.085,0,0,1,.015.02L.022.031c.755,1.245,4.8,8,10.261,18.856,3.5,6.946,6.885,14.181,10.064,21.5,3.97,9.147,7.626,18.458,10.865,27.674A338.606,338.606,0,0,1,47.9,136.308a249,249,0,0,1,2.107,37.761,198.715,198.715,0,0,1-4.533,38.318c-4.439,19.974-5.932,36.918-4.566,51.8H51.5a2,2,0,1,1,0,4H41.355c.129.991.275,2,.435,3H27a1.5,1.5,0,1,0,0,3H42.318c.191.993.4,2,.625,3H80.5a2,2,0,0,1,0,4H43.935c3.51,12.949,9.222,23.048,14.747,32.815,5.23,9.246,10.17,17.979,13.439,28.951A86.6,86.6,0,0,1,75.47,361.2a116.942,116.942,0,0,1-.619,22.907,109.157,109.157,0,0,1-6.9,28.082H35a1.5,1.5,0,0,0,0,3H66.677c-.606,1.352-1.253,2.7-1.923,4H87.5a2,2,0,1,1,0,4H62.546a71.347,71.347,0,0,1-13.39,16.555A70.944,70.944,0,0,1,28.6,452.718,79.294,79.294,0,0,1,10.557,457.8,65.954,65.954,0,0,1,.589,458.674Z" transform="translate(89.501 458.674) rotate(180)"/>
</svg>
