<svg xmlns="http://www.w3.org/2000/svg" xmlns:xlink="http://www.w3.org/1999/xlink" width="89.5" height="458.675" viewBox="0 0 89.5 458.675">
  <defs>
    <style>
      .cls-1 {
        fill: url(#linear-gradient);
      }
    </style>
    <linearGradient id="linear-gradient" x1="0.302" y1="-0.192" x2="0.5" y2="1" gradientUnits="objectBoundingBox">
      <stop offset="0" stop-color="#5ab9ef"/>
      <stop offset="1" stop-color="#67e5ff"/>
    </linearGradient>
  </defs>
  <path id="Subtraction_12" data-name="Subtraction 12" class="cls-1" d="M0,458.675V.007H.043C.2,0,.39,0,.59,0a66.046,66.046,0,0,1,9.97.875A79.336,79.336,0,0,1,28.6,5.958,70.918,70.918,0,0,1,49.157,18.933,71.286,71.286,0,0,1,62.546,35.487H87.5a2,2,0,1,1,0,4H64.754c.676,1.314,1.323,2.661,1.923,4H35a1.5,1.5,0,0,0,0,3H67.954a109.14,109.14,0,0,1,6.9,28.083,116.931,116.931,0,0,1,.619,22.906,86.6,86.6,0,0,1-3.348,18.245c-3.269,10.972-8.209,19.7-13.439,28.95-5.525,9.766-11.237,19.865-14.748,32.816H80.5a2,2,0,0,1,0,4H42.943c-.221.981-.432,1.991-.625,3H27a1.5,1.5,0,1,0,0,3H41.79c-.156.976-.3,1.985-.435,3H51.5a2,2,0,0,1,0,4H40.912c-1.366,14.881.127,31.825,4.566,51.8A198.713,198.713,0,0,1,50.011,284.6,249.033,249.033,0,0,1,47.9,322.367a338.606,338.606,0,0,1-16.692,68.242c-3.235,9.206-6.89,18.517-10.865,27.674-3.179,7.323-6.565,14.559-10.064,21.5C4.322,451.623.044,458.6,0,458.672Z" transform="translate(89.5 458.675) rotate(180)"/>
</svg>
