<svg xmlns="http://www.w3.org/2000/svg" xmlns:xlink="http://www.w3.org/1999/xlink" width="89.501" height="458.675" viewBox="0 0 89.501 458.675">
  <defs>
    <style>
      .cls-1 {
        fill: url(#linear-gradient);
      }
    </style>
    <linearGradient id="linear-gradient" x1="0.302" y1="-0.192" x2="0.5" y2="1" gradientUnits="objectBoundingBox">
      <stop offset="0" stop-color="#5ab9ef"/>
      <stop offset="1" stop-color="#67e5ff"/>
    </linearGradient>
  </defs>
  <path id="Subtraction_10" data-name="Subtraction 10" class="cls-1" d="M0,458.675V.007H.043C.2,0,.39,0,.59,0a66.024,66.024,0,0,1,9.968.875A79.291,79.291,0,0,1,28.6,5.957,70.951,70.951,0,0,1,49.156,18.932a71.339,71.339,0,0,1,13.39,16.555H87.5a2,2,0,1,1,0,4H64.754c.676,1.314,1.323,2.661,1.923,4H35a1.5,1.5,0,0,0,0,3H67.954a109.175,109.175,0,0,1,6.9,28.082,116.931,116.931,0,0,1,.619,22.907,86.6,86.6,0,0,1-3.348,18.244c-3.269,10.97-8.209,19.7-13.439,28.951-5.525,9.767-11.238,19.866-14.747,32.816H80.5a2,2,0,0,1,0,4H42.943c-.221.981-.432,1.991-.625,3H27a1.5,1.5,0,1,0,0,3H41.79c-.156.976-.3,1.985-.435,3H51.5a2,2,0,0,1,0,4H40.912c-1.366,14.881.127,31.826,4.566,51.8a198.717,198.717,0,0,1,4.533,38.318A249,249,0,0,1,47.9,322.367a338.581,338.581,0,0,1-16.692,68.242c-3.235,9.206-6.89,18.517-10.865,27.674-3.179,7.323-6.565,14.559-10.064,21.5C4.374,451.52.178,458.386,0,458.672Z" transform="translate(0)"/>
</svg>
