<svg xmlns="http://www.w3.org/2000/svg" xmlns:xlink="http://www.w3.org/1999/xlink" width="89.5" height="458.674" viewBox="0 0 89.5 458.674">
  <defs>
    <style>
      .cls-1 {
        fill: url(#linear-gradient);
      }
    </style>
    <linearGradient id="linear-gradient" x1="0.302" y1="-0.192" x2="0.5" y2="1" gradientUnits="objectBoundingBox">
      <stop offset="0" stop-color="#5ab9ef"/>
      <stop offset="1" stop-color="#67e5ff"/>
    </linearGradient>
  </defs>
  <path id="Subtraction_4" data-name="Subtraction 4" class="cls-1" d="M1426,473.674V15.007h.043c.107,0,.288-.005.546-.005a65.975,65.975,0,0,1,9.97.875,79.241,79.241,0,0,1,18.041,5.083,69.906,69.906,0,0,1,33.946,29.529H1513.5a2,2,0,0,1,0,4h-22.747c.67,1.3,1.317,2.646,1.924,4H1461a1.5,1.5,0,0,0,0,3h32.954a109.206,109.206,0,0,1,6.9,28.083,116.94,116.94,0,0,1,.619,22.907,86.557,86.557,0,0,1-3.349,18.245c-3.265,10.961-8.2,19.691-13.428,28.933l-.01.017c-5.525,9.767-11.237,19.865-14.748,32.816H1506.5a2,2,0,0,1,0,4h-37.557c-.221.981-.432,1.99-.626,3H1453a1.5,1.5,0,1,0,0,3h14.79c-.156.974-.3,1.983-.435,3H1477.5a2,2,0,0,1,0,4h-10.589c-1.366,14.88.127,31.824,4.566,51.8a198.705,198.705,0,0,1,4.533,38.318,248.9,248.9,0,0,1-2.107,37.761,338.671,338.671,0,0,1-16.692,68.243c-3.24,9.218-6.9,18.528-10.865,27.673-3.178,7.322-6.564,14.557-10.064,21.5-5.872,11.658-10.1,18.6-10.282,18.885Z" transform="translate(-1426 -15)"/>
</svg>
