<svg xmlns="http://www.w3.org/2000/svg" xmlns:xlink="http://www.w3.org/1999/xlink" width="89.501" height="458.675" viewBox="0 0 89.501 458.675">
  <defs>
    <style>
      .cls-1 {
        fill: url(#linear-gradient);
      }
    </style>
    <linearGradient id="linear-gradient" x1="0.302" y1="1.192" x2="0.5" gradientUnits="objectBoundingBox">
      <stop offset="0" stop-color="#5ab9ef"/>
      <stop offset="1" stop-color="#67e5ff"/>
    </linearGradient>
  </defs>
  <path id="Subtraction_8" data-name="Subtraction 8" class="cls-1" d="M.589,458.675c-.343,0-.554-.006-.588-.007V0A.074.074,0,0,1,.012.017l.01.016c.755,1.245,4.8,8,10.261,18.855,3.5,6.949,6.886,14.184,10.064,21.5,3.97,9.146,7.626,18.457,10.865,27.674A338.606,338.606,0,0,1,47.9,136.309a249.032,249.032,0,0,1,2.107,37.762,198.713,198.713,0,0,1-4.533,38.318c-4.439,19.974-5.932,36.919-4.566,51.8H51.5a2,2,0,1,1,0,4H41.355c.129.991.275,2,.435,3H27a1.5,1.5,0,1,0,0,3H42.318c.191.992.4,2,.625,3H80.5a2,2,0,0,1,0,4H43.934C47.446,294.14,53.158,304.238,58.683,314c5.23,9.246,10.17,17.979,13.439,28.95A86.605,86.605,0,0,1,75.47,361.2a116.931,116.931,0,0,1-.619,22.906,109.16,109.16,0,0,1-6.9,28.083H35a1.5,1.5,0,0,0,0,3H66.677c-.61,1.361-1.258,2.707-1.924,4H87.5a2,2,0,1,1,0,4H62.546a71.316,71.316,0,0,1-13.39,16.555A70.906,70.906,0,0,1,28.6,452.718a79.3,79.3,0,0,1-18.04,5.082A66.03,66.03,0,0,1,.589,458.675Z" transform="translate(0)"/>
</svg>
