<svg xmlns="http://www.w3.org/2000/svg" xmlns:xlink="http://www.w3.org/1999/xlink" width="924.113" height="771.047" viewBox="0 0 924.113 771.047">
  <defs>
    <style>
      .cls-1 {
        fill: url(#linear-gradient);
      }
    </style>
    <linearGradient id="linear-gradient" x1="0.5" x2="0.5" y2="1" gradientUnits="objectBoundingBox">
      <stop offset="0" stop-color="#5ab9ef"/>
      <stop offset="1" stop-color="#67e5ff"/>
    </linearGradient>
  </defs>
  <path id="Union_3" data-name="Union 3" class="cls-1" d="M2350.112,786.047h0l-.007-.007c-.59-.493-14.734-12.28-38.075-29.079-14.08-10.135-28.8-20.165-43.754-29.813-18.685-12.059-37.8-23.558-56.8-34.177-48.365-27.022-96.306-48.55-142.491-63.99-57.731-19.3-112.87-29.086-163.883-29.086-4.05,0-8.117.061-12.09.184-5.4.164-10.774.247-15.969.247-49.151,0-89.447-7.335-119.771-21.807q-2.328-1.111-4.58-2.281h-55.125a3.5,3.5,0,1,1,0-7h43.126a118.457,118.457,0,0,1-13.221-10h78.095a3.5,3.5,0,0,0,0-7h-85.351a96.536,96.536,0,0,1-9.611-12h-72.038a3.5,3.5,0,1,1,0-7h67.751c-1.427-2.586-2.739-5.268-3.9-7.97-8.724-20.337-9.846-43.866-3.245-68.044a140.766,140.766,0,0,1,13.9-33.07,153.348,153.348,0,0,1,21.78-29.165,53.268,53.268,0,0,0,6.7-8.581,41.288,41.288,0,0,0,4.161-8.858,37.519,37.519,0,0,0,1.774-9.1,40.8,40.8,0,0,0-.458-9.31,59.658,59.658,0,0,0-7.08-19.266,116.115,116.115,0,0,0-14.266-19.722,219.147,219.147,0,0,0-20.193-19.909c-7.286-6.38-15.652-13.052-24.864-19.828-38.553-28.36-87.542-55.346-121.037-73.178h49.981a3.5,3.5,0,1,0,0-7h-63.22c-1.52-.8-3.178-1.669-5.722-3h-76.058a3.5,3.5,0,1,1,0-7h62.618c-3.5-1.818-6.931-3.595-10.247-5.313l-.758-.393-.03-.014-.037-.019c-9.46-4.9-18.4-9.528-26.325-13.719a135.689,135.689,0,0,1-15.825-9.769,119.292,119.292,0,0,1-13.088-10.9,109.183,109.183,0,0,1-18.911-24.206c-8.579-14.942-13.759-32.191-15.4-51.269a161.506,161.506,0,0,1-.275-23.183,176.968,176.968,0,0,1,2.149-18.961A138.238,138.238,0,0,1,1432.43,15l917.683,1.738V786.047Z" transform="translate(-1426 -15)"/>
</svg>
