<svg xmlns="http://www.w3.org/2000/svg" xmlns:xlink="http://www.w3.org/1999/xlink" width="979.299" height="194.504" viewBox="0 0 979.299 194.504">
  <defs>
    <style>
      .cls-1 {
        fill: url(#linear-gradient);
      }
    </style>
    <linearGradient id="linear-gradient" x1="0.5" x2="0.5" y2="1" gradientUnits="objectBoundingBox">
      <stop offset="0" stop-color="#5ab9ef"/>
      <stop offset="1" stop-color="#67e5ff"/>
    </linearGradient>
  </defs>
  <path id="Union_19" data-name="Union 19" class="cls-1" d="M818.3,209.5h0l-.01-.005c-.518-.2-12.9-5.08-33.026-12.021-19.1-6.586-49.5-16.523-85.9-26.461-40.925-11.174-80.944-20.076-118.946-26.46-47.5-7.981-91.971-12.028-132.171-12.028-51.116,0-96.077,6.552-133.636,19.476-52.756,18.152-102.453,27.356-147.712,27.357a294.118,294.118,0,0,1-54.125-4.824,230.306,230.306,0,0,1-45.134-13.195A184.956,184.956,0,0,1,31.55,141.691,150.4,150.4,0,0,1,4.577,117.5H34.519a2,2,0,1,0,0-4h-55a3,3,0,0,1-3-3,3,3,0,0,1,3-3h17.2A112.378,112.378,0,0,1-16.25,83.764,75.983,75.983,0,0,0-29.952,61.5H18.519a2,2,0,1,0,0-4h-98a3,3,0,0,1-3-3,3,3,0,0,1,3-3h39.188a107.483,107.483,0,0,0-9.915-7.268c-13.121-8.535-29.438-15.411-48.5-20.439-7.493-1.977-15.428-3.668-23.583-5.027-6.527-1.089-13.214-1.969-19.875-2.616C-153.462,15.05-160.93,15-161,15H818.3V209.5Z" transform="translate(161 -15)"/>
</svg>
